<?xml version="1.0" standalone="no"?>
<!DOCTYPE svg PUBLIC "-//W3C//DTD SVG 20010904//EN"
 "http://www.w3.org/TR/2001/REC-SVG-20010904/DTD/svg10.dtd">
<svg version="1.0" xmlns="http://www.w3.org/2000/svg"
 width="1755.000000pt" height="1062.000000pt" viewBox="0 0 1755.000000 1062.000000"
 preserveAspectRatio="xMidYMid meet">

<g transform="translate(0.000000,1062.000000) scale(0.100000,-0.100000)"
fill="#000000" stroke="none">
<path d="M2403 10004 c-39 -14 -77 -50 -143 -132 -18 -23 -39 -35 -75 -43 -75
-16 -100 -31 -103 -60 -2 -19 5 -33 27 -52 17 -14 31 -33 31 -41 0 -9 -25 -45
-55 -81 -36 -42 -78 -111 -118 -193 -107 -217 -127 -238 -272 -275 -33 -8
-112 -33 -175 -54 -98 -34 -122 -46 -162 -85 -55 -54 -130 -203 -147 -292 -6
-33 -32 -103 -58 -155 -49 -102 -64 -173 -43 -211 30 -56 105 -142 144 -165
25 -14 58 -25 80 -25 20 0 64 -11 97 -25 50 -22 74 -25 145 -24 47 1 87 0 89
-3 2 -2 6 -65 7 -139 l3 -134 -42 -97 c-22 -53 -67 -149 -98 -213 -59 -122
-65 -131 -246 -300 -41 -38 -115 -126 -164 -193 -50 -68 -102 -140 -117 -160
-15 -21 -46 -64 -70 -97 -23 -33 -70 -87 -104 -120 -107 -103 -161 -206 -121
-232 21 -14 111 -43 131 -43 29 0 136 -31 136 -40 0 -4 -50 -24 -110 -43 -150
-49 -225 -86 -293 -147 -85 -77 -117 -128 -117 -188 0 -44 4 -54 31 -76 30
-26 32 -26 204 -26 191 0 218 5 308 64 91 58 225 66 593 38 50 -4 98 -13 106
-20 35 -28 39 -140 37 -879 -3 -730 2 -885 37 -1128 45 -322 113 -565 175
-627 65 -66 222 -13 353 118 45 44 96 128 96 156 0 7 -14 54 -30 103 -41 122
-100 381 -110 485 -5 47 -14 135 -20 195 -22 216 -14 1455 9 1478 9 9 218 -36
406 -88 28 -8 118 -32 200 -55 83 -22 166 -45 185 -50 227 -63 261 -63 377 -8
211 102 303 286 175 352 -15 7 -103 35 -197 60 -93 26 -194 54 -223 62 -32 9
-55 22 -58 32 -12 38 -23 47 -70 55 -128 20 -159 29 -221 59 -36 18 -70 43
-76 55 -7 15 -23 24 -56 30 -43 8 -46 10 -52 45 -3 20 -11 43 -17 51 -7 8 -9
27 -6 44 4 22 -1 44 -20 79 -17 33 -26 64 -26 96 0 26 -13 111 -30 189 l-29
142 16 150 c15 138 15 151 -1 177 -9 16 -16 49 -16 75 0 25 -7 60 -16 76 -12
24 -13 37 -5 61 17 48 13 115 -9 158 -21 41 -21 45 -20 210 1 77 5 111 17 129
25 38 60 280 77 529 4 54 29 82 73 82 27 0 45 10 85 48 50 48 50 48 39 88 -6
22 -24 53 -41 69 -16 16 -30 36 -30 44 -1 28 -46 73 -81 80 l-34 7 -1 143 0
144 48 81 c27 45 60 92 72 106 13 14 40 60 60 102 l36 78 -3 127 c-3 121 -5
130 -31 170 -29 43 -81 84 -129 102 -40 15 -164 12 -214 -5z m61 -689 c18 -37
18 -85 1 -87 -5 0 -13 14 -17 33 -4 19 -10 46 -14 62 -9 39 10 34 30 -8z
m-334 -779 c-1 -16 -36 -56 -49 -56 -11 0 -16 72 -5 83 9 8 54 -14 54 -27z
m150 20 c0 -8 3 -21 6 -29 3 -10 -18 -35 -63 -72 -37 -32 -72 -67 -77 -79 -27
-67 -57 -118 -71 -120 -26 -3 -8 101 22 125 7 6 13 20 13 30 0 26 55 83 74 76
19 -8 66 29 66 52 0 10 3 21 7 24 11 12 23 8 23 -7z m-51 -473 c11 -22 26
-133 17 -133 -11 0 -46 90 -46 119 0 34 14 41 29 14z m71 -273 c13 -45 13 -67
0 -75 -5 -3 -10 -28 -10 -55 0 -27 -4 -51 -9 -54 -10 -7 -72 22 -83 38 -4 6
-8 21 -8 33 0 20 3 21 24 13 20 -7 27 -5 40 16 13 19 15 39 11 92 -6 62 -5 66
9 47 9 -10 21 -35 26 -55z m20 -230 c0 -5 -2 -10 -4 -10 -3 0 -8 5 -11 10 -3
6 -1 10 4 10 6 0 11 -4 11 -10z m-262 -57 c27 -24 105 -181 130 -263 13 -41
24 -121 31 -217 12 -161 36 -287 76 -387 86 -218 115 -346 81 -359 -9 -4 -63
2 -119 12 -56 11 -131 22 -167 26 -36 4 -99 13 -140 22 -58 12 -145 16 -385
17 l-311 1 -43 32 c-43 32 -93 95 -112 141 -10 26 23 103 59 135 11 10 23 34
26 53 5 24 12 34 25 34 10 0 41 26 70 58 121 134 258 264 296 281 22 10 47 26
55 36 8 9 38 27 66 40 35 15 58 33 68 52 8 16 22 36 31 43 9 8 28 34 41 59 56
104 147 200 190 201 7 0 21 -8 32 -17z"/>
<path d="M1624 9238 c-10 -16 25 -38 60 -38 l31 1 -28 24 c-31 27 -52 32 -63
13z"/>
<path d="M7485 6446 c-71 -17 -130 -55 -213 -137 -73 -73 -117 -147 -142 -239
-10 -36 -9 -50 5 -86 14 -38 15 -60 4 -201 -7 -87 -13 -387 -15 -668 -2 -439
-4 -515 -18 -547 -23 -53 -20 -99 7 -136 19 -25 26 -51 32 -124 4 -51 7 -103
6 -116 -1 -27 -100 -161 -162 -218 -192 -176 -484 -273 -738 -244 -134 15
-231 49 -308 107 -30 22 -33 29 -33 74 0 44 -4 55 -31 80 -23 21 -41 29 -68
29 -24 0 -45 7 -60 21 -25 24 -44 66 -37 84 2 7 42 22 88 35 123 33 239 80
405 164 453 230 827 586 859 818 9 62 -11 137 -46 180 -16 19 -60 51 -98 71
-62 33 -83 38 -191 49 -131 13 -336 0 -410 -26 -20 -7 -60 -21 -90 -30 -300
-98 -662 -384 -857 -677 -46 -70 -84 -129 -84 -132 0 -3 -15 -39 -34 -79 -66
-143 -81 -214 -79 -388 1 -85 4 -171 5 -190 3 -33 2 -35 -27 -33 -51 4 -452
144 -797 278 -27 11 -22 38 13 71 52 49 154 175 203 251 149 231 211 492 156
660 -18 54 -33 78 -74 118 -105 102 -233 113 -471 38 -100 -32 -177 -70 -283
-140 -96 -65 -112 -62 -112 16 0 35 9 59 35 101 48 74 49 129 3 172 -54 50
-85 61 -150 54 -113 -11 -299 -153 -358 -271 -23 -46 -24 -61 -24 -190 0 -98
5 -162 18 -215 26 -113 34 -231 50 -745 17 -550 25 -633 83 -848 14 -54 34
-109 45 -122 38 -49 131 -50 226 -3 114 58 242 201 242 273 0 16 -10 103 -22
192 -17 129 -20 165 -10 175 15 15 99 -13 442 -142 118 -45 229 -85 245 -90
17 -4 75 -21 130 -38 274 -80 533 -86 703 -15 33 14 36 13 100 -26 98 -59 174
-91 276 -117 124 -32 331 -33 479 -3 283 57 546 178 791 361 43 33 85 62 92
65 17 6 29 -20 44 -102 32 -165 69 -297 91 -321 70 -75 240 -16 377 131 64 68
87 117 79 168 -4 29 -25 126 -55 257 -29 123 -68 431 -58 457 10 26 86 11 268
-53 418 -146 715 -484 899 -1024 66 -194 83 -214 167 -208 105 8 230 84 330
201 51 58 65 108 56 190 -6 54 -12 66 -44 97 -21 20 -44 57 -55 85 -130 366
-335 662 -589 852 -120 89 -314 190 -451 235 -22 7 -40 19 -40 27 0 9 51 37
130 71 72 31 155 69 185 86 148 79 273 184 338 282 38 59 42 71 42 126 0 199
-200 203 -397 9 -40 -39 -73 -79 -73 -87 0 -42 -55 -67 -455 -203 -334 -113
-346 -116 -357 -105 -34 34 -11 957 34 1352 9 83 9 100 -6 128 -27 51 -79 67
-161 48z m-1001 -1432 c72 -19 86 -28 86 -60 0 -56 -174 -197 -356 -290 -123
-62 -204 -90 -299 -104 -38 -5 -94 -15 -124 -20 -92 -19 -99 -5 -47 98 103
200 245 319 446 373 83 22 214 24 294 3z m-2285 -99 c103 -53 54 -309 -99
-517 -61 -82 -115 -121 -173 -122 -41 -1 -42 0 -47 34 -16 113 31 371 90 495
36 75 56 94 117 111 63 17 79 17 112 -1z"/>
<path d="M10945 6407 c-165 -62 -245 -156 -365 -427 -105 -236 -175 -509 -201
-780 -4 -52 -13 -129 -19 -170 -6 -41 -14 -204 -20 -362 -5 -159 -12 -293 -16
-299 -9 -16 -30 21 -50 91 -96 335 -222 704 -289 855 -15 33 -58 143 -95 245
-91 247 -131 342 -200 485 -124 257 -202 298 -388 209 -127 -61 -242 -196
-242 -285 0 -46 23 -77 77 -100 42 -18 47 -24 97 -131 30 -62 66 -144 80 -183
15 -38 31 -79 36 -90 12 -26 60 -154 103 -275 19 -52 64 -169 100 -260 63
-158 99 -264 201 -595 192 -621 304 -897 463 -1140 61 -94 84 -110 153 -109
73 1 158 44 244 125 80 74 112 137 126 242 5 43 12 83 16 88 19 31 45 390 54
749 21 835 32 1018 76 1290 42 256 72 353 176 565 76 155 85 203 47 244 -22
24 -60 41 -87 40 -9 0 -44 -10 -77 -22z"/>
<path d="M14250 6295 c-94 -26 -216 -117 -268 -199 -92 -144 -236 -537 -302
-821 -12 -49 -27 -117 -35 -150 -38 -165 -59 -323 -75 -570 -13 -188 6 -472
40 -615 68 -281 199 -489 355 -566 53 -26 70 -29 150 -28 104 1 154 17 279 90
99 58 274 229 338 329 55 88 132 252 154 331 51 182 54 231 20 271 -22 26 -30
28 -93 28 -87 0 -158 -34 -253 -122 -77 -71 -89 -94 -131 -236 -40 -134 -87
-237 -109 -237 -39 0 -136 142 -180 265 -53 151 -71 272 -77 525 -6 282 -11
271 108 245 111 -24 282 -25 363 -1 103 31 261 122 345 200 47 43 102 132 103
164 1 41 -27 88 -62 102 -43 18 -99 8 -187 -34 -41 -20 -87 -36 -101 -36 -31
0 -125 16 -207 36 -72 18 -209 34 -233 27 -9 -2 -26 3 -37 10 -19 15 -19 16
-1 93 22 96 40 161 78 280 22 70 37 98 64 125 83 80 124 192 124 341 0 54 -5
108 -11 120 -11 21 -67 49 -96 47 -10 0 -38 -7 -63 -14z"/>
<path d="M15969 5371 c-279 -75 -726 -318 -891 -483 -32 -32 -71 -85 -88 -118
-27 -54 -30 -65 -20 -94 19 -58 53 -81 118 -80 90 1 159 38 289 155 52 47 222
136 351 185 186 70 363 -10 432 -196 24 -64 50 -212 50 -287 0 -65 -6 -66 -92
-14 -100 61 -201 109 -291 139 -71 23 -97 27 -197 26 -100 0 -124 -4 -185 -28
-147 -57 -299 -172 -379 -288 -78 -115 -127 -281 -128 -441 -2 -276 155 -468
447 -549 65 -17 107 -22 220 -22 214 0 350 33 560 134 280 135 503 351 578
560 21 59 47 174 47 208 0 45 -19 100 -45 131 -24 28 -25 34 -25 182 0 387
-85 659 -244 779 -140 106 -341 146 -507 101z m-339 -1269 c63 -31 160 -90
216 -130 102 -72 231 -182 248 -210 15 -25 -18 -39 -124 -53 -87 -11 -110 -10
-185 5 -128 25 -185 50 -244 106 -80 76 -118 181 -102 279 9 57 24 74 56 65
11 -3 72 -31 135 -62z"/>
<path d="M12505 5329 c-119 -32 -209 -84 -301 -174 -132 -128 -156 -221 -92
-353 37 -78 172 -223 316 -339 50 -41 92 -78 92 -83 0 -5 -42 -29 -94 -53
-130 -62 -207 -116 -307 -216 -62 -63 -95 -106 -120 -156 -32 -65 -34 -76 -34
-170 0 -88 3 -107 27 -158 42 -88 85 -143 163 -202 130 -100 275 -149 433
-148 50 1 116 6 145 13 296 66 481 162 653 341 124 129 180 281 155 418 -39
209 -185 416 -415 587 -160 119 -167 125 -161 135 4 5 29 9 56 9 151 0 388
187 389 308 0 31 -25 78 -47 87 -10 4 -48 11 -85 15 -51 6 -98 22 -195 68
-111 52 -142 62 -236 76 -136 20 -253 18 -342 -5z m356 -1196 c122 -128 182
-236 183 -332 l1 -65 -60 -18 c-191 -57 -427 31 -510 192 -28 54 -18 70 70
114 51 27 104 65 150 108 38 37 77 68 86 68 9 0 45 -30 80 -67z"/>
<path d="M11584 5110 c-118 -41 -219 -119 -272 -209 -22 -37 -25 -55 -24 -120
0 -42 6 -100 11 -130 6 -29 11 -91 11 -136 0 -45 9 -194 20 -331 11 -137 24
-334 30 -439 24 -428 29 -462 82 -499 63 -44 202 6 321 114 88 81 110 128 110
239 1 96 -17 458 -33 651 -5 69 -14 193 -20 275 -25 354 -55 527 -97 566 -34
32 -83 39 -139 19z"/>
<path d="M8660 2381 c-14 -27 -13 -104 2 -119 7 -7 27 -12 45 -12 38 0 53 21
53 75 0 55 -15 75 -55 75 -24 0 -38 -6 -45 -19z"/>
<path d="M14716 2378 c-18 -26 -20 -65 -6 -102 8 -21 16 -26 44 -26 19 0 39 7
47 17 17 20 17 97 -1 118 -19 23 -66 19 -84 -7z"/>
<path d="M15682 2387 c-19 -22 -24 -65 -12 -101 10 -32 16 -36 45 -36 42 0 60
22 60 75 0 23 -6 49 -14 58 -16 20 -64 22 -79 4z"/>
<path d="M1985 2297 c-39 -39 -55 -89 -55 -173 0 -89 23 -151 96 -261 106
-157 120 -195 92 -246 -32 -62 -90 -64 -153 -6 -36 33 -45 38 -45 23 2 -75
143 -114 209 -59 45 39 66 104 66 210 0 111 -14 151 -107 301 -77 126 -88 162
-64 199 22 34 57 32 101 -6 33 -29 35 -30 35 -10 0 29 -55 61 -103 61 -31 0
-46 -7 -72 -33z"/>
<path d="M4170 1942 l0 -379 114 -6 c134 -8 151 -3 188 56 35 56 52 135 52
237 0 203 -79 316 -196 281 -22 -7 -43 -9 -46 -6 -4 4 -9 49 -10 101 l-4 94
-49 0 -49 0 0 -378z m214 162 c14 -13 16 -50 16 -249 0 -129 -4 -245 -10 -259
-13 -36 -53 -34 -91 3 l-29 29 0 210 c0 199 1 211 21 236 19 24 49 43 71 45 4
1 14 -6 22 -15z"/>
<path d="M9770 1942 l0 -379 116 -7 c128 -7 140 -4 179 49 53 68 74 247 46
377 -24 114 -99 174 -183 149 -22 -7 -43 -9 -46 -6 -4 4 -9 49 -10 101 l-4 94
-49 0 -49 0 0 -378z m214 162 c14 -13 16 -51 16 -255 0 -147 -4 -248 -10 -260
-16 -28 -57 -24 -91 10 l-29 29 0 210 c0 199 1 211 21 236 19 24 49 43 71 45
4 1 14 -6 22 -15z"/>
<path d="M10620 1940 l0 -380 55 0 55 0 0 380 0 380 -55 0 -55 0 0 -380z"/>
<path d="M12070 1940 l0 -380 70 0 70 0 0 359 c0 398 -2 388 64 375 57 -10 98
-44 129 -104 26 -49 28 -51 22 -20 -9 49 -54 112 -95 132 -27 14 -60 18 -147
18 l-113 0 0 -380z"/>
<path d="M15220 1940 l0 -380 55 0 55 0 0 215 c0 192 2 220 19 253 28 54 57
78 76 62 13 -11 15 -52 15 -271 l0 -259 56 0 56 0 -4 253 c-3 223 -5 256 -21
280 -39 59 -99 60 -152 1 -17 -19 -34 -34 -38 -34 -4 0 -7 59 -7 130 l0 130
-55 0 -55 0 0 -380z"/>
<path d="M2353 2264 c-48 -41 -53 -50 -53 -86 0 -31 -4 -41 -20 -45 -11 -3
-20 -9 -20 -13 0 -5 9 -12 20 -15 19 -6 20 -15 20 -203 0 -287 20 -352 105
-352 53 0 91 28 104 77 13 46 8 54 -8 14 -7 -16 -24 -40 -38 -53 -24 -23 -25
-23 -39 -4 -11 16 -14 67 -14 254 0 142 4 241 10 253 8 13 21 19 45 19 19 0
35 5 35 10 0 6 -15 10 -34 10 -19 0 -38 6 -43 13 -4 6 -10 47 -13 89 l-5 77
-52 -45z"/>
<path d="M6160 2305 c0 -16 -27 -168 -54 -315 -14 -74 -23 -136 -21 -139 3 -2
8 10 11 27 4 18 10 32 14 32 7 0 65 -172 101 -297 7 -23 15 -40 19 -38 4 2 12
30 20 62 22 103 81 308 89 316 10 10 40 -118 67 -280 l18 -113 68 0 c66 0 68
1 68 26 0 14 -4 44 -10 67 -5 23 -23 114 -39 202 -16 88 -42 226 -57 308 -15
81 -31 144 -34 140 -4 -5 -24 -73 -45 -153 -47 -179 -66 -240 -75 -240 -13 0
-38 73 -81 230 -37 136 -59 196 -59 165z"/>
<path d="M7993 2266 c-49 -38 -53 -44 -53 -84 0 -35 -4 -45 -20 -49 -11 -3
-20 -8 -20 -12 0 -3 9 -12 20 -19 19 -11 20 -23 20 -207 0 -280 19 -345 101
-345 22 0 49 5 60 10 22 12 49 61 48 87 0 13 -3 11 -10 -7 -13 -31 -48 -70
-65 -70 -6 0 -15 7 -18 16 -3 9 -6 125 -6 258 0 260 1 266 52 266 15 0 28 5
28 10 0 6 -16 10 -35 10 -40 0 -43 8 -47 111 l-3 67 -52 -42z"/>
<path d="M14988 2268 c-37 -31 -48 -47 -48 -70 0 -37 -16 -68 -35 -68 -8 0
-15 -4 -15 -10 0 -5 7 -10 15 -10 29 0 35 -39 35 -247 0 -221 8 -273 43 -298
34 -24 99 -19 125 8 23 24 49 92 31 82 -5 -4 -9 -12 -9 -19 0 -7 -14 -25 -31
-42 -30 -29 -31 -29 -45 -9 -12 17 -14 61 -12 263 3 264 3 262 61 262 15 0 27
5 27 10 0 6 -15 10 -34 10 -19 0 -38 6 -43 13 -4 6 -10 46 -13 89 l-5 76 -47
-40z"/>
<path d="M2676 2130 c-34 -11 -66 -38 -66 -57 0 -10 11 -5 35 13 44 34 110 38
131 9 14 -19 18 -83 8 -122 -6 -21 -10 -22 -65 -16 -46 4 -64 2 -85 -11 -84
-56 -96 -286 -18 -363 26 -27 40 -33 73 -33 23 0 53 7 66 16 15 10 25 12 25 5
0 -7 23 -11 60 -11 l60 0 0 178 c0 254 -19 342 -80 380 -28 17 -107 24 -144
12z m73 -205 c16 -8 31 -22 35 -30 3 -9 6 -70 6 -135 0 -119 0 -119 -31 -155
-63 -72 -79 -42 -79 150 0 139 8 185 31 185 5 0 23 -7 38 -15z"/>
<path d="M3198 2123 c-9 -10 -24 -38 -34 -63 -26 -68 -32 -68 -39 4 l-7 66
-54 0 -54 0 0 -285 0 -285 55 0 55 0 0 143 c0 166 12 254 43 317 17 35 27 45
47 45 22 0 25 4 25 34 0 40 -15 49 -37 24z"/>
<path d="M3351 2128 c-51 -27 -66 -63 -65 -151 0 -92 7 -110 94 -244 62 -93
69 -117 44 -144 -24 -27 -85 -21 -120 12 -19 18 -24 19 -24 6 0 -29 49 -57
101 -57 87 0 129 60 129 185 0 79 -14 120 -69 200 -80 119 -86 132 -66 162 13
20 22 23 43 18 15 -4 37 -16 50 -27 17 -17 22 -18 22 -6 0 40 -92 71 -139 46z"/>
<path d="M3836 2130 c-34 -11 -66 -38 -66 -57 0 -9 12 -5 36 14 45 34 108 38
130 8 15 -20 18 -72 8 -122 -6 -29 -7 -30 -44 -19 -89 23 -148 -22 -170 -131
-30 -141 25 -273 112 -273 22 0 52 7 68 15 17 9 30 11 30 5 0 -6 24 -10 56
-10 l55 0 -3 233 c-3 252 -10 286 -64 322 -30 20 -109 28 -148 15z m74 -207
c37 -21 40 -35 40 -171 l0 -112 -34 -38 c-29 -31 -38 -35 -53 -26 -16 10 -18
30 -21 174 -3 194 4 211 68 173z"/>
<path d="M4715 2131 c-62 -27 -106 -121 -113 -241 -8 -150 28 -281 90 -325 30
-20 93 -19 129 2 33 19 75 97 84 153 5 26 1 21 -14 -20 -33 -93 -132 -166
-146 -107 -3 12 -4 132 -3 267 l3 245 29 3 c35 4 80 -35 107 -93 10 -22 19
-33 19 -25 0 26 -36 94 -63 118 -27 26 -90 37 -122 23z"/>
<path d="M5423 2125 c-87 -37 -137 -232 -102 -397 25 -117 79 -178 159 -178
37 0 55 6 78 25 31 26 59 85 41 85 -5 0 -9 -4 -9 -9 0 -5 -15 -26 -34 -45 -26
-28 -41 -36 -69 -36 -49 0 -57 19 -57 130 0 129 1 130 112 130 l91 0 -6 78
c-9 118 -41 188 -99 218 -34 17 -64 17 -105 -1z m82 -15 l26 -10 -3 -122 -3
-123 -30 -3 c-54 -4 -60 7 -63 126 -3 91 -1 112 13 125 19 20 25 20 60 7z"/>
<path d="M6733 2125 c-115 -50 -151 -346 -62 -505 28 -50 63 -70 120 -70 35 0
47 6 74 35 18 19 41 57 50 85 20 59 16 79 -4 22 -19 -53 -55 -97 -92 -112 -56
-24 -59 -10 -59 266 0 204 2 245 15 258 30 29 93 -19 131 -99 24 -51 32 -44
11 10 -22 56 -51 95 -83 110 -39 18 -59 18 -101 0z"/>
<path d="M7655 2099 l-44 -40 -7 35 c-6 36 -6 36 -60 36 l-54 0 0 -285 0 -285
54 0 55 0 3 223 3 224 29 37 c33 43 54 55 67 35 5 -8 9 -128 9 -266 l0 -253
55 0 55 0 0 228 c-1 251 -7 296 -45 330 -38 33 -69 28 -120 -19z"/>
<path d="M8316 2130 c-34 -11 -66 -38 -66 -57 0 -19 11 -16 41 13 20 19 39 27
67 28 60 1 72 -15 72 -96 l0 -69 -65 7 c-64 7 -65 6 -99 -28 -39 -39 -56 -89
-56 -171 0 -80 17 -142 50 -177 23 -24 36 -30 72 -30 24 0 53 7 65 15 14 10
24 12 28 5 3 -5 31 -10 62 -10 l55 0 -4 233 c-3 210 -5 235 -23 266 -11 19
-31 42 -45 53 -29 21 -112 31 -154 18z m97 -217 c15 -14 17 -35 17 -154 l0
-137 -31 -26 c-32 -27 -54 -33 -64 -16 -8 13 -7 339 1 352 8 13 54 1 77 -19z"/>
<path d="M9063 2121 c-17 -11 -37 -29 -43 -40 -16 -30 -27 -26 -34 14 -7 34
-8 35 -55 35 -31 0 -51 -5 -54 -13 -3 -7 -4 -134 -3 -283 l1 -269 53 0 54 0
-1 205 -1 205 28 49 c35 63 58 78 78 52 11 -16 14 -68 14 -268 l0 -248 55 0
55 0 0 208 c0 226 -10 316 -37 344 -29 28 -73 32 -110 9z"/>
<path d="M9395 2133 c-31 -8 -46 -24 -66 -68 -40 -86 -18 -176 76 -322 36 -56
65 -110 65 -121 0 -55 -80 -69 -129 -23 -26 24 -31 26 -31 11 0 -32 47 -60
101 -60 94 0 134 65 128 206 -4 75 -6 83 -54 157 -99 155 -99 154 -81 182 21
32 47 32 86 -1 38 -32 49 -26 18 10 -23 27 -73 40 -113 29z"/>
<path d="M10315 2126 c-68 -31 -104 -109 -112 -241 -13 -211 50 -335 169 -335
50 0 82 19 103 60 26 50 17 51 -26 5 -32 -35 -49 -45 -73 -45 -18 0 -37 5 -44
12 -13 13 -17 202 -6 232 5 13 23 16 95 16 106 0 106 0 91 106 -11 83 -43 158
-77 180 -33 22 -86 26 -120 10z m97 -29 c13 -20 9 -222 -4 -235 -15 -15 -61
-15 -76 0 -8 8 -12 50 -12 125 0 96 2 113 18 122 20 12 63 5 74 -12z"/>
<path d="M10935 2131 c-63 -28 -105 -119 -112 -244 -8 -143 17 -243 77 -307
24 -25 36 -30 78 -30 38 0 55 5 75 24 31 28 62 88 71 136 5 26 0 19 -18 -25
-14 -33 -37 -70 -51 -82 -28 -25 -72 -40 -83 -28 -4 3 -8 123 -10 265 -3 241
-2 259 15 268 40 21 105 -37 134 -120 10 -29 18 -45 19 -36 0 34 -41 125 -69
152 -31 30 -91 42 -126 27z"/>
<path d="M12615 2127 c-87 -40 -138 -236 -104 -399 25 -117 79 -178 158 -178
34 0 56 6 75 21 30 24 61 78 50 87 -4 4 -9 0 -12 -8 -3 -8 -20 -30 -38 -48
-28 -28 -39 -33 -71 -30 l-38 3 0 125 0 125 94 3 94 3 -6 77 c-8 97 -23 144
-61 188 -36 41 -91 53 -141 31z m80 -17 l26 -10 -3 -122 c-3 -133 -6 -138 -64
-124 -24 6 -24 8 -24 130 0 140 5 149 65 126z"/>
<path d="M12983 2120 c-32 -14 -43 -25 -43 -41 l0 -22 23 21 c47 44 126 50
147 11 13 -23 13 -91 0 -124 -8 -22 -13 -24 -29 -15 -32 17 -96 12 -123 -10
-44 -34 -62 -86 -62 -180 -1 -141 38 -210 118 -210 23 0 51 7 63 15 14 10 24
12 28 5 3 -5 31 -10 61 -10 l54 0 0 211 c0 117 -5 229 -11 253 -25 99 -126
142 -226 96z m108 -209 c29 -29 29 -30 29 -149 0 -114 -1 -122 -25 -151 -31
-36 -64 -49 -76 -30 -10 16 -12 319 -3 343 10 25 43 19 75 -13z"/>
<path d="M13423 2124 c-90 -45 -135 -225 -98 -397 26 -125 72 -177 155 -177
52 0 76 13 95 50 20 38 12 38 -32 0 -35 -31 -71 -38 -91 -18 -9 9 -12 81 -12
265 0 239 1 253 19 263 23 12 45 5 89 -27 38 -28 45 -9 9 25 -31 29 -94 37
-134 16z"/>
<path d="M13785 2133 c-63 -17 -108 -93 -126 -212 -20 -134 7 -265 70 -331 35
-37 42 -40 91 -40 49 0 56 3 92 40 21 23 38 47 38 56 0 8 -19 -6 -44 -31 -39
-42 -48 -46 -82 -43 l-39 3 0 125 0 125 94 3 94 3 -6 77 c-7 100 -20 140 -60
186 -32 37 -77 52 -122 39z m75 -33 c17 -17 20 -33 20 -116 0 -106 -9 -134
-45 -134 -54 0 -55 3 -55 135 0 109 2 124 18 128 33 9 42 7 62 -13z"/>
<path d="M16094 2131 c-11 -5 -32 -23 -47 -40 -30 -36 -37 -38 -37 -12 0 43
-10 51 -66 51 l-54 0 0 -285 0 -285 55 0 55 0 0 208 c0 179 3 212 19 247 22
49 55 79 76 72 13 -6 15 -42 15 -267 l0 -260 55 0 55 0 0 238 c0 232 -7 299
-34 321 -19 16 -68 22 -92 12z"/>
<path d="M4974 2113 c3 -10 32 -121 66 -248 34 -126 66 -248 72 -270 l11 -40
17 65 c10 36 38 142 64 236 50 188 61 252 18 109 -42 -137 -41 -135 -57 -105
-7 14 -28 80 -46 148 l-32 122 -59 0 c-52 0 -59 -2 -54 -17z"/>
<path d="M5255 2100 c-4 -17 -5 -34 -2 -36 2 -3 7 10 11 27 8 42 0 50 -9 9z"/>
<path d="M7042 1878 c4 -309 10 -328 103 -328 26 0 42 9 68 35 19 19 37 35 41
35 3 0 6 -13 6 -30 0 -30 1 -30 55 -30 l55 0 0 285 0 285 -55 0 -55 0 0 -223
0 -223 -30 -47 c-30 -48 -62 -62 -74 -31 -3 9 -6 130 -6 270 l0 254 -56 0 -56
0 4 -252z"/>
<path d="M8650 1845 l0 -285 55 0 55 0 0 285 0 285 -55 0 -55 0 0 -285z"/>
<path d="M11194 2113 c3 -10 33 -128 66 -263 74 -301 73 -299 89 -235 25 103
72 245 81 245 5 0 21 -39 36 -87 14 -49 34 -115 44 -148 21 -69 18 -73 60 105
41 177 43 194 24 150 l-16 -35 -15 29 c-8 15 -28 77 -45 138 -17 60 -34 106
-38 101 -4 -4 -17 -46 -29 -93 -24 -92 -50 -160 -61 -160 -4 0 -10 8 -13 18
-9 27 -54 194 -61 225 -6 26 -9 27 -67 27 -53 0 -60 -2 -55 -17z"/>
<path d="M11646 2094 c-4 -20 -5 -38 -3 -40 3 -3 8 11 11 32 4 20 5 38 3 40
-3 3 -8 -11 -11 -32z"/>
<path d="M12432 2100 c0 -19 2 -27 5 -17 2 9 2 25 0 35 -3 9 -5 1 -5 -18z"/>
<path d="M14164 2113 c3 -10 33 -128 66 -263 33 -135 64 -253 68 -263 5 -14
15 10 36 85 34 127 56 188 67 188 8 0 17 -29 77 -230 11 -37 22 -59 25 -50 12
32 88 363 84 367 -2 2 -10 -17 -17 -42 -7 -25 -16 -48 -20 -50 -10 -6 -31 48
-65 168 -17 59 -31 93 -36 85 -4 -7 -17 -49 -29 -93 -26 -94 -49 -155 -59
-155 -11 0 -28 56 -71 228 l-11 42 -60 0 c-53 0 -60 -2 -55 -17z"/>
<path d="M14622 2110 c0 -14 2 -19 5 -12 2 6 2 18 0 25 -3 6 -5 1 -5 -13z"/>
<path d="M14700 1845 l0 -285 55 0 55 0 0 285 0 285 -55 0 -55 0 0 -285z"/>
<path d="M15661 1845 l0 -285 54 0 55 0 0 285 0 285 -54 0 -55 0 0 -285z"/>
<path d="M14611 2064 c0 -11 3 -14 6 -6 3 7 2 16 -1 19 -3 4 -6 -2 -5 -13z"/>
<path d="M11626 2018 c-3 -13 -5 -32 -5 -43 1 -11 5 -2 10 19 10 42 6 62 -5
24z"/>
<path d="M14596 2004 c-4 -20 -5 -38 -3 -40 3 -3 8 11 11 32 4 20 5 38 3 40
-3 3 -8 -11 -11 -32z"/>
<path d="M12432 1975 c0 -16 2 -22 5 -12 2 9 2 23 0 30 -3 6 -5 -1 -5 -18z"/>
<path d="M4901 1954 c0 -11 3 -14 6 -6 3 7 2 16 -1 19 -3 4 -6 -2 -5 -13z"/>
<path d="M11611 1934 c0 -11 3 -14 6 -6 3 7 2 16 -1 19 -3 4 -6 -2 -5 -13z"/>
<path d="M6932 1920 c0 -14 2 -19 5 -12 2 6 2 18 0 25 -3 6 -5 1 -5 -13z"/>
<path d="M11133 1840 c0 -41 2 -58 4 -37 2 20 2 54 0 75 -2 20 -4 3 -4 -38z"/>
<path d="M12406 1875 c-4 -14 -23 -43 -42 -65 -29 -32 -43 -40 -70 -40 -24 0
-34 -5 -34 -15 0 -26 53 -17 92 15 34 28 78 113 66 126 -3 3 -9 -7 -12 -21z"/>
<path d="M6931 1804 c0 -11 3 -14 6 -6 3 7 2 16 -1 19 -3 4 -6 -2 -5 -13z"/>
<path d="M6931 1764 c0 -11 3 -14 6 -6 3 7 2 16 -1 19 -3 4 -6 -2 -5 -13z"/>
<path d="M5735 1735 c-21 -20 -25 -34 -25 -82 0 -71 19 -103 60 -103 38 0 54
29 54 101 1 59 -22 109 -50 109 -8 0 -26 -11 -39 -25z"/>
<path d="M6061 1744 c0 -11 3 -14 6 -6 3 7 2 16 -1 19 -3 4 -6 -2 -5 -13z"/>
<path d="M11738 1749 c-36 -21 -47 -148 -16 -186 17 -21 65 -15 82 9 19 27 21
119 5 151 -20 37 -40 45 -71 26z"/>
<path d="M16351 1741 c-26 -26 -34 -87 -18 -141 11 -40 16 -45 44 -48 42 -4
64 29 65 96 0 92 -45 139 -91 93z"/>
<path d="M6052 1690 c0 -14 2 -19 5 -12 2 6 2 18 0 25 -3 6 -5 1 -5 -13z"/>
<path d="M6041 1644 c0 -11 3 -14 6 -6 3 7 2 16 -1 19 -3 4 -6 -2 -5 -13z"/>
<path d="M6032 1595 c0 -16 2 -22 5 -12 2 9 2 23 0 30 -3 6 -5 -1 -5 -18z"/>
</g>
</svg>
